<?xml version="1.0"?>
<svg width="230" height="60" xmlns="http://www.w3.org/2000/svg"
  xmlns:svg="http://www.w3.org/2000/svg">
  <g class="layer">
    <title>Layer 1</title>
    <path
      d="m49.98,47.32c-1.29,0.73 -15.49,8.96 -15.49,8.96c-2.94,1.6 -5.93,1.66 -8.86,0c-5.44,-3.08 -10.86,-6.19 -16.24,-9.36c-2.88,-1.7 -4.37,-4.31 -4.38,-7.68c-0.01,-6.19 -0.02,-12.38 0.01,-18.56c0.01,-3.38 1.55,-5.96 4.43,-7.66c5.34,-3.14 10.71,-6.22 16.1,-9.27c2.98,-1.69 6.02,-1.66 9,0.05c5.24,2.99 10.47,6.01 15.69,9.03c3.18,1.84 4.78,4.56 4.75,8.28c-0.04,5.87 -0.06,11.74 0.01,17.61c0.04,3.91 -1.67,6.69 -5.02,8.6zm-30.81,-35.55c-2.45,1.42 -4.89,2.87 -7.36,4.25c-2.02,1.13 -3.04,2.76 -3.01,5.11c0.04,5.34 0.01,10.69 0.01,16.04c0,0.38 0.07,0.76 0.11,1.14c0.11,0.07 0.23,0.13 0.34,0.2c0.36,-0.45 0.68,-0.93 1.08,-1.33c5.34,-5.35 10.69,-10.68 16.04,-16.02c2.99,-2.99 4.23,-3 7.18,-0.06c5.38,5.38 10.77,10.76 16.16,16.13c0.39,0.39 0.81,0.75 1.29,1.19c0.09,-0.31 0.16,-0.44 0.16,-0.58c0,-5.77 0.01,-11.53 0,-17.3c-0.01,-1.97 -1,-3.37 -2.67,-4.34c-5.22,-3.02 -10.46,-6.02 -15.68,-9.04c-1.9,-1.1 -3.77,-1.09 -5.67,0.02c-2.58,1.52 -5.18,2.99 -7.98,4.59zm3.43,18.52c-3.56,3.56 -7.12,7.11 -10.68,10.67c-1.44,1.45 -1.34,2.29 0.39,3.3c4.17,2.41 8.35,4.82 12.54,7.21c0.44,0.25 0.97,0.38 1.51,0.58c0.09,-0.39 0.16,-0.54 0.15,-0.69c-0.05,-0.36 -0.13,-0.72 -0.2,-1.07c-0.69,-3.43 -0.86,-6.9 0.11,-10.26c0.86,-3.01 2.12,-5.9 3.19,-8.84c0.75,-2.08 1.36,-4.19 0.8,-6.44c-0.35,-1.37 -0.74,-1.48 -1.75,-0.49c-1.98,1.94 -3.94,3.92 -6.06,6.03z"
      fill="#ffffff" id="svg_10" />
    <text fill="#ffffff" font-family="Serif" font-size="24" font-weight="bold" id="svg_11"
      stroke="#000000" stroke-width="0" text-anchor="middle"
      transform="matrix(1.36198 0 0 1.54096 -15.4022 -22.4267)" x="112.02" xml:space="preserve"
      y="41.95">EVEREST</text>
  </g>
</svg>